<svg width="655" height="100" viewBox="0 0 446 68" fill="none" xmlns="http://www.w3.org/2000/svg">
<g id="&#60;Tuguldur G/&#62;" filter="url(#filter0_d_9_2)">
<mask id="path-1-outside-1_9_2" maskUnits="userSpaceOnUse" x="3" y="-1" width="441" height="62" fill="black">
<rect fill="white" x="3" y="-1" width="655" height="100"/>
<path d="M23.184 44.184L4.496 25.56L23.184 6.872L27.408 11.16L12.944 25.56L27.408 39.96L23.184 44.184ZM388.453 59.8V58.008L408.101 0.279999H414.373V2.072L394.789 59.8H388.453ZM423.064 44.184L418.776 39.96L433.24 25.56L418.776 11.16L423.064 6.872L441.688 25.56L423.064 44.184Z"/>
<path d="M49.1715 47V8.984H31.8275V2.2H74.1955V8.984H56.8515V47H49.1715ZM80.8235 47L73.9755 40.152V15H81.2075V37.528L84.2795 40.6H93.3035L97.3355 37.272V15H104.568V47H98.8715V44.44H97.7195L94.6475 47H80.8235ZM115.588 59.8V53.4H136.068L137.988 51.48V44.824H137.028L134.404 47H120.58L113.156 39.576V22.424L120.58 15H145.22V54.04L139.46 59.8H115.588ZM124.036 40.6H133.252L137.988 36.696V21.4H124.036L120.388 25.048V36.952L124.036 40.6ZM160.949 47L154.101 40.152V15H161.333V37.528L164.405 40.6H173.429L177.461 37.272V15H184.693V47H178.997V44.44H177.845L174.773 47H160.949ZM195.265 47V8.408H188.864V2.2H202.497V47H195.265ZM218.83 47L211.406 39.576V22.424L218.83 15H236.238V2.2H243.47V47H237.774V43.928H236.494L232.782 47H218.83ZM222.286 40.6H231.438L236.238 36.696V21.4H222.286L218.638 25.048V36.952L222.286 40.6ZM259.511 47L252.663 40.152V15H259.895V37.528L262.967 40.6H271.991L276.023 37.272V15H283.255V47H277.559V44.44H276.407L273.335 47H259.511ZM292.483 47V15H298.179V17.56H299.395L302.403 15H314.819V21.4H303.747L299.715 24.728V47H292.483ZM349.079 47L339.991 37.912V11.288L349.079 2.2H380.183V8.984H352.727L347.671 14.04V35.16L352.727 40.216H371.159L376.215 35.16V27.352H360.151V20.952H383.895V37.912L374.807 47H349.079Z"/>
</mask>
<path d="M23.184 44.184L4.496 25.56L23.184 6.872L27.408 11.16L12.944 25.56L27.408 39.96L23.184 44.184ZM388.453 59.8V58.008L408.101 0.279999H414.373V2.072L394.789 59.8H388.453ZM423.064 44.184L418.776 39.96L433.24 25.56L418.776 11.16L423.064 6.872L441.688 25.56L423.064 44.184Z" fill="#1AEDE6"/>
<path d="M49.1715 47V8.984H31.8275V2.2H74.1955V8.984H56.8515V47H49.1715ZM80.8235 47L73.9755 40.152V15H81.2075V37.528L84.2795 40.6H93.3035L97.3355 37.272V15H104.568V47H98.8715V44.44H97.7195L94.6475 47H80.8235ZM115.588 59.8V53.4H136.068L137.988 51.48V44.824H137.028L134.404 47H120.58L113.156 39.576V22.424L120.58 15H145.22V54.04L139.46 59.8H115.588ZM124.036 40.6H133.252L137.988 36.696V21.4H124.036L120.388 25.048V36.952L124.036 40.6ZM160.949 47L154.101 40.152V15H161.333V37.528L164.405 40.6H173.429L177.461 37.272V15H184.693V47H178.997V44.44H177.845L174.773 47H160.949ZM195.265 47V8.408H188.864V2.2H202.497V47H195.265ZM218.83 47L211.406 39.576V22.424L218.83 15H236.238V2.2H243.47V47H237.774V43.928H236.494L232.782 47H218.83ZM222.286 40.6H231.438L236.238 36.696V21.4H222.286L218.638 25.048V36.952L222.286 40.6ZM259.511 47L252.663 40.152V15H259.895V37.528L262.967 40.6H271.991L276.023 37.272V15H283.255V47H277.559V44.44H276.407L273.335 47H259.511ZM292.483 47V15H298.179V17.56H299.395L302.403 15H314.819V21.4H303.747L299.715 24.728V47H292.483ZM349.079 47L339.991 37.912V11.288L349.079 2.2H380.183V8.984H352.727L347.671 14.04V35.16L352.727 40.216H371.159L376.215 35.16V27.352H360.151V20.952H383.895V37.912L374.807 47H349.079Z" fill="white"/>
<path d="M23.184 44.184L22.4781 44.8923L23.1852 45.597L23.8911 44.8911L23.184 44.184ZM4.496 25.56L3.78889 24.8529L3.08057 25.5612L3.79011 26.2683L4.496 25.56ZM23.184 6.872L23.8964 6.17023L23.1893 5.45245L22.4769 6.16489L23.184 6.872ZM27.408 11.16L28.1135 11.8687L28.8185 11.1669L28.1204 10.4582L27.408 11.16ZM12.944 25.56L12.2385 24.8513L11.5266 25.56L12.2385 26.2687L12.944 25.56ZM27.408 39.96L28.1151 40.6671L28.8238 39.9584L28.1135 39.2513L27.408 39.96ZM23.8899 43.4757L5.20189 24.8517L3.79011 26.2683L22.4781 44.8923L23.8899 43.4757ZM5.20311 26.2671L23.8911 7.5791L22.4769 6.16489L3.78889 24.8529L5.20311 26.2671ZM22.4716 7.57377L26.6956 11.8618L28.1204 10.4582L23.8964 6.17023L22.4716 7.57377ZM26.7025 10.4513L12.2385 24.8513L13.6495 26.2687L28.1135 11.8687L26.7025 10.4513ZM12.2385 26.2687L26.7025 40.6687L28.1135 39.2513L13.6495 24.8513L12.2385 26.2687ZM26.7009 39.2529L22.4769 43.4769L23.8911 44.8911L28.1151 40.6671L26.7009 39.2529ZM49.1715 47H48.1715V48H49.1715V47ZM49.1715 8.984H50.1715V7.984H49.1715V8.984ZM31.8275 8.984H30.8275V9.984H31.8275V8.984ZM31.8275 2.2V1.2H30.8275V2.2H31.8275ZM74.1955 2.2H75.1955V1.2H74.1955V2.2ZM74.1955 8.984V9.984H75.1955V8.984H74.1955ZM56.8515 8.984V7.984H55.8515V8.984H56.8515ZM56.8515 47V48H57.8515V47H56.8515ZM50.1715 47V8.984H48.1715V47H50.1715ZM49.1715 7.984H31.8275V9.984H49.1715V7.984ZM32.8275 8.984V2.2H30.8275V8.984H32.8275ZM31.8275 3.2H74.1955V1.2H31.8275V3.2ZM73.1955 2.2V8.984H75.1955V2.2H73.1955ZM74.1955 7.984H56.8515V9.984H74.1955V7.984ZM55.8515 8.984V47H57.8515V8.984H55.8515ZM56.8515 46H49.1715V48H56.8515V46ZM80.8235 47L80.1164 47.7071L80.4093 48H80.8235V47ZM73.9755 40.152H72.9755V40.5662L73.2684 40.8591L73.9755 40.152ZM73.9755 15V14H72.9755V15H73.9755ZM81.2075 15H82.2075V14H81.2075V15ZM81.2075 37.528H80.2075V37.9422L80.5004 38.2351L81.2075 37.528ZM84.2795 40.6L83.5724 41.3071L83.8653 41.6H84.2795V40.6ZM93.3035 40.6V41.6H93.6629L93.9401 41.3712L93.3035 40.6ZM97.3355 37.272L97.9721 38.0432L98.3355 37.7432V37.272H97.3355ZM97.3355 15V14H96.3355V15H97.3355ZM104.568 15H105.568V14H104.568V15ZM104.568 47V48H105.568V47H104.568ZM98.8715 47H97.8715V48H98.8715V47ZM98.8715 44.44H99.8715V43.44H98.8715V44.44ZM97.7195 44.44V43.44H97.3575L97.0793 43.6718L97.7195 44.44ZM94.6475 47V48H95.0096L95.2877 47.7682L94.6475 47ZM81.5306 46.2929L74.6826 39.4449L73.2684 40.8591L80.1164 47.7071L81.5306 46.2929ZM74.9755 40.152V15H72.9755V40.152H74.9755ZM73.9755 16H81.2075V14H73.9755V16ZM80.2075 15V37.528H82.2075V15H80.2075ZM80.5004 38.2351L83.5724 41.3071L84.9866 39.8929L81.9146 36.8209L80.5004 38.2351ZM84.2795 41.6H93.3035V39.6H84.2795V41.6ZM93.9401 41.3712L97.9721 38.0432L96.6989 36.5008L92.6669 39.8288L93.9401 41.3712ZM98.3355 37.272V15H96.3355V37.272H98.3355ZM97.3355 16H104.568V14H97.3355V16ZM103.568 15V47H105.568V15H103.568ZM104.568 46H98.8715V48H104.568V46ZM99.8715 47V44.44H97.8715V47H99.8715ZM98.8715 43.44H97.7195V45.44H98.8715V43.44ZM97.0793 43.6718L94.0073 46.2318L95.2877 47.7682L98.3597 45.2082L97.0793 43.6718ZM94.6475 46H80.8235V48H94.6475V46ZM115.588 59.8H114.588V60.8H115.588V59.8ZM115.588 53.4V52.4H114.588V53.4H115.588ZM136.068 53.4V54.4H136.482L136.775 54.1071L136.068 53.4ZM137.988 51.48L138.695 52.1871L138.988 51.8942V51.48H137.988ZM137.988 44.824H138.988V43.824H137.988V44.824ZM137.028 44.824V43.824H136.667L136.389 44.0542L137.028 44.824ZM134.404 47V48H134.764L135.042 47.7698L134.404 47ZM120.58 47L119.872 47.7071L120.165 48H120.58V47ZM113.156 39.576H112.156V39.9902L112.448 40.2831L113.156 39.576ZM113.156 22.424L112.448 21.7169L112.156 22.0098V22.424H113.156ZM120.58 15V14H120.165L119.872 14.2929L120.58 15ZM145.22 15H146.22V14H145.22V15ZM145.22 54.04L145.927 54.7471L146.22 54.4542V54.04H145.22ZM139.46 59.8V60.8H139.874L140.167 60.5071L139.46 59.8ZM124.036 40.6L123.328 41.3071L123.621 41.6H124.036V40.6ZM133.252 40.6V41.6H133.611L133.888 41.3716L133.252 40.6ZM137.988 36.696L138.624 37.4676L138.988 37.1676V36.696H137.988ZM137.988 21.4H138.988V20.4H137.988V21.4ZM124.036 21.4V20.4H123.621L123.328 20.6929L124.036 21.4ZM120.388 25.048L119.68 24.3409L119.388 24.6338V25.048H120.388ZM120.388 36.952H119.388V37.3662L119.68 37.6591L120.388 36.952ZM116.588 59.8V53.4H114.588V59.8H116.588ZM115.588 54.4H136.068V52.4H115.588V54.4ZM136.775 54.1071L138.695 52.1871L137.28 50.7729L135.36 52.6929L136.775 54.1071ZM138.988 51.48V44.824H136.988V51.48H138.988ZM137.988 43.824H137.028V45.824H137.988V43.824ZM136.389 44.0542L133.765 46.2302L135.042 47.7698L137.666 45.5938L136.389 44.0542ZM134.404 46H120.58V48H134.404V46ZM121.287 46.2929L113.863 38.8689L112.448 40.2831L119.872 47.7071L121.287 46.2929ZM114.156 39.576V22.424H112.156V39.576H114.156ZM113.863 23.1311L121.287 15.7071L119.872 14.2929L112.448 21.7169L113.863 23.1311ZM120.58 16H145.22V14H120.58V16ZM144.22 15V54.04H146.22V15H144.22ZM144.512 53.3329L138.752 59.0929L140.167 60.5071L145.927 54.7471L144.512 53.3329ZM139.46 58.8H115.588V60.8H139.46V58.8ZM124.036 41.6H133.252V39.6H124.036V41.6ZM133.888 41.3716L138.624 37.4676L137.351 35.9244L132.615 39.8284L133.888 41.3716ZM138.988 36.696V21.4H136.988V36.696H138.988ZM137.988 20.4H124.036V22.4H137.988V20.4ZM123.328 20.6929L119.68 24.3409L121.095 25.7551L124.743 22.1071L123.328 20.6929ZM119.388 25.048V36.952H121.388V25.048H119.388ZM119.68 37.6591L123.328 41.3071L124.743 39.8929L121.095 36.2449L119.68 37.6591ZM160.949 47L160.241 47.7071L160.534 48H160.949V47ZM154.101 40.152H153.101V40.5662L153.393 40.8591L154.101 40.152ZM154.101 15V14H153.101V15H154.101ZM161.333 15H162.333V14H161.333V15ZM161.333 37.528H160.333V37.9422L160.625 38.2351L161.333 37.528ZM164.405 40.6L163.697 41.3071L163.99 41.6H164.405V40.6ZM173.429 40.6V41.6H173.788L174.065 41.3712L173.429 40.6ZM177.461 37.272L178.097 38.0432L178.461 37.7432V37.272H177.461ZM177.461 15V14H176.461V15H177.461ZM184.693 15H185.693V14H184.693V15ZM184.693 47V48H185.693V47H184.693ZM178.997 47H177.997V48H178.997V47ZM178.997 44.44H179.997V43.44H178.997V44.44ZM177.845 44.44V43.44H177.482L177.204 43.6718L177.845 44.44ZM174.773 47V48H175.135L175.413 47.7682L174.773 47ZM161.656 46.2929L154.808 39.4449L153.393 40.8591L160.241 47.7071L161.656 46.2929ZM155.101 40.152V15H153.101V40.152H155.101ZM154.101 16H161.333V14H154.101V16ZM160.333 15V37.528H162.333V15H160.333ZM160.625 38.2351L163.697 41.3071L165.112 39.8929L162.04 36.8209L160.625 38.2351ZM164.405 41.6H173.429V39.6H164.405V41.6ZM174.065 41.3712L178.097 38.0432L176.824 36.5008L172.792 39.8288L174.065 41.3712ZM178.461 37.272V15H176.461V37.272H178.461ZM177.461 16H184.693V14H177.461V16ZM183.693 15V47H185.693V15H183.693ZM184.693 46H178.997V48H184.693V46ZM179.997 47V44.44H177.997V47H179.997ZM178.997 43.44H177.845V45.44H178.997V43.44ZM177.204 43.6718L174.132 46.2318L175.413 47.7682L178.485 45.2082L177.204 43.6718ZM174.773 46H160.949V48H174.773V46ZM195.265 47H194.265V48H195.265V47ZM195.265 8.408H196.265V7.408H195.265V8.408ZM188.864 8.408H187.864V9.408H188.864V8.408ZM188.864 2.2V1.2H187.864V2.2H188.864ZM202.497 2.2H203.497V1.2H202.497V2.2ZM202.497 47V48H203.497V47H202.497ZM196.265 47V8.408H194.265V47H196.265ZM195.265 7.408H188.864V9.408H195.265V7.408ZM189.864 8.408V2.2H187.864V8.408H189.864ZM188.864 3.2H202.497V1.2H188.864V3.2ZM201.497 2.2V47H203.497V2.2H201.497ZM202.497 46H195.265V48H202.497V46ZM218.83 47L218.122 47.7071L218.415 48H218.83V47ZM211.406 39.576H210.406V39.9902L210.698 40.2831L211.406 39.576ZM211.406 22.424L210.698 21.7169L210.406 22.0098V22.424H211.406ZM218.83 15V14H218.415L218.122 14.2929L218.83 15ZM236.238 15V16H237.238V15H236.238ZM236.238 2.2V1.2H235.238V2.2H236.238ZM243.47 2.2H244.47V1.2H243.47V2.2ZM243.47 47V48H244.47V47H243.47ZM237.774 47H236.774V48H237.774V47ZM237.774 43.928H238.774V42.928H237.774V43.928ZM236.494 43.928V42.928H236.133L235.856 43.1576L236.494 43.928ZM232.782 47V48H233.142L233.419 47.7704L232.782 47ZM222.286 40.6L221.578 41.3071L221.871 41.6H222.286V40.6ZM231.438 40.6V41.6H231.793L232.068 41.3758L231.438 40.6ZM236.238 36.696L236.868 37.4718L237.238 37.1717V36.696H236.238ZM236.238 21.4H237.238V20.4H236.238V21.4ZM222.286 21.4V20.4H221.871L221.578 20.6929L222.286 21.4ZM218.638 25.048L217.93 24.3409L217.638 24.6338V25.048H218.638ZM218.638 36.952H217.638V37.3662L217.93 37.6591L218.638 36.952ZM219.537 46.2929L212.113 38.8689L210.698 40.2831L218.122 47.7071L219.537 46.2929ZM212.406 39.576V22.424H210.406V39.576H212.406ZM212.113 23.1311L219.537 15.7071L218.122 14.2929L210.698 21.7169L212.113 23.1311ZM218.83 16H236.238V14H218.83V16ZM237.238 15V2.2H235.238V15H237.238ZM236.238 3.2H243.47V1.2H236.238V3.2ZM242.47 2.2V47H244.47V2.2H242.47ZM243.47 46H237.774V48H243.47V46ZM238.774 47V43.928H236.774V47H238.774ZM237.774 42.928H236.494V44.928H237.774V42.928ZM235.856 43.1576L232.144 46.2296L233.419 47.7704L237.131 44.6984L235.856 43.1576ZM232.782 46H218.83V48H232.782V46ZM222.286 41.6H231.438V39.6H222.286V41.6ZM232.068 41.3758L236.868 37.4718L235.607 35.9202L230.807 39.8242L232.068 41.3758ZM237.238 36.696V21.4H235.238V36.696H237.238ZM236.238 20.4H222.286V22.4H236.238V20.4ZM221.578 20.6929L217.93 24.3409L219.345 25.7551L222.993 22.1071L221.578 20.6929ZM217.638 25.048V36.952H219.638V25.048H217.638ZM217.93 37.6591L221.578 41.3071L222.993 39.8929L219.345 36.2449L217.93 37.6591ZM259.511 47L258.804 47.7071L259.097 48H259.511V47ZM252.663 40.152H251.663V40.5662L251.956 40.8591L252.663 40.152ZM252.663 15V14H251.663V15H252.663ZM259.895 15H260.895V14H259.895V15ZM259.895 37.528H258.895V37.9422L259.188 38.2351L259.895 37.528ZM262.967 40.6L262.26 41.3071L262.553 41.6H262.967V40.6ZM271.991 40.6V41.6H272.35L272.628 41.3712L271.991 40.6ZM276.023 37.272L276.66 38.0432L277.023 37.7432V37.272H276.023ZM276.023 15V14H275.023V15H276.023ZM283.255 15H284.255V14H283.255V15ZM283.255 47V48H284.255V47H283.255ZM277.559 47H276.559V48H277.559V47ZM277.559 44.44H278.559V43.44H277.559V44.44ZM276.407 44.44V43.44H276.045L275.767 43.6718L276.407 44.44ZM273.335 47V48H273.697L273.975 47.7682L273.335 47ZM260.218 46.2929L253.37 39.4449L251.956 40.8591L258.804 47.7071L260.218 46.2929ZM253.663 40.152V15H251.663V40.152H253.663ZM252.663 16H259.895V14H252.663V16ZM258.895 15V37.528H260.895V15H258.895ZM259.188 38.2351L262.26 41.3071L263.674 39.8929L260.602 36.8209L259.188 38.2351ZM262.967 41.6H271.991V39.6H262.967V41.6ZM272.628 41.3712L276.66 38.0432L275.386 36.5008L271.354 39.8288L272.628 41.3712ZM277.023 37.272V15H275.023V37.272H277.023ZM276.023 16H283.255V14H276.023V16ZM282.255 15V47H284.255V15H282.255ZM283.255 46H277.559V48H283.255V46ZM278.559 47V44.44H276.559V47H278.559ZM277.559 43.44H276.407V45.44H277.559V43.44ZM275.767 43.6718L272.695 46.2318L273.975 47.7682L277.047 45.2082L275.767 43.6718ZM273.335 46H259.511V48H273.335V46ZM292.483 47H291.483V48H292.483V47ZM292.483 15V14H291.483V15H292.483ZM298.179 15H299.179V14H298.179V15ZM298.179 17.56H297.179V18.56H298.179V17.56ZM299.395 17.56V18.56H299.763L300.043 18.3215L299.395 17.56ZM302.403 15V14H302.035L301.755 14.2385L302.403 15ZM314.819 15H315.819V14H314.819V15ZM314.819 21.4V22.4H315.819V21.4H314.819ZM303.747 21.4V20.4H303.388L303.11 20.6288L303.747 21.4ZM299.715 24.728L299.078 23.9568L298.715 24.2568V24.728H299.715ZM299.715 47V48H300.715V47H299.715ZM293.483 47V15H291.483V47H293.483ZM292.483 16H298.179V14H292.483V16ZM297.179 15V17.56H299.179V15H297.179ZM298.179 18.56H299.395V16.56H298.179V18.56ZM300.043 18.3215L303.051 15.7615L301.755 14.2385L298.747 16.7985L300.043 18.3215ZM302.403 16H314.819V14H302.403V16ZM313.819 15V21.4H315.819V15H313.819ZM314.819 20.4H303.747V22.4H314.819V20.4ZM303.11 20.6288L299.078 23.9568L300.352 25.4992L304.384 22.1712L303.11 20.6288ZM298.715 24.728V47H300.715V24.728H298.715ZM299.715 46H292.483V48H299.715V46ZM349.079 47L348.371 47.7071L348.664 48H349.079V47ZM339.991 37.912H338.991V38.3262L339.283 38.6191L339.991 37.912ZM339.991 11.288L339.283 10.5809L338.991 10.8738V11.288H339.991ZM349.079 2.2V1.2H348.664L348.371 1.49289L349.079 2.2ZM380.183 2.2H381.183V1.2H380.183V2.2ZM380.183 8.984V9.984H381.183V8.984H380.183ZM352.727 8.984V7.984H352.312L352.019 8.27689L352.727 8.984ZM347.671 14.04L346.963 13.3329L346.671 13.6258V14.04H347.671ZM347.671 35.16H346.671V35.5742L346.963 35.8671L347.671 35.16ZM352.727 40.216L352.019 40.9231L352.312 41.216H352.727V40.216ZM371.159 40.216V41.216H371.573L371.866 40.9231L371.159 40.216ZM376.215 35.16L376.922 35.8671L377.215 35.5742V35.16H376.215ZM376.215 27.352H377.215V26.352H376.215V27.352ZM360.151 27.352H359.151V28.352H360.151V27.352ZM360.151 20.952V19.952H359.151V20.952H360.151ZM383.895 20.952H384.895V19.952H383.895V20.952ZM383.895 37.912L384.602 38.6191L384.895 38.3262V37.912H383.895ZM374.807 47V48H375.221L375.514 47.7071L374.807 47ZM349.786 46.2929L340.698 37.2049L339.283 38.6191L348.371 47.7071L349.786 46.2929ZM340.991 37.912V11.288H338.991V37.912H340.991ZM340.698 11.9951L349.786 2.9071L348.371 1.49289L339.283 10.5809L340.698 11.9951ZM349.079 3.2H380.183V1.2H349.079V3.2ZM379.183 2.2V8.984H381.183V2.2H379.183ZM380.183 7.984H352.727V9.984H380.183V7.984ZM352.019 8.27689L346.963 13.3329L348.378 14.7471L353.434 9.6911L352.019 8.27689ZM346.671 14.04V35.16H348.671V14.04H346.671ZM346.963 35.8671L352.019 40.9231L353.434 39.5089L348.378 34.4529L346.963 35.8671ZM352.727 41.216H371.159V39.216H352.727V41.216ZM371.866 40.9231L376.922 35.8671L375.507 34.4529L370.451 39.5089L371.866 40.9231ZM377.215 35.16V27.352H375.215V35.16H377.215ZM376.215 26.352H360.151V28.352H376.215V26.352ZM361.151 27.352V20.952H359.151V27.352H361.151ZM360.151 21.952H383.895V19.952H360.151V21.952ZM382.895 20.952V37.912H384.895V20.952H382.895ZM383.187 37.2049L374.099 46.2929L375.514 47.7071L384.602 38.6191L383.187 37.2049ZM374.807 46H349.079V48H374.807V46ZM388.453 59.8H387.453V60.8H388.453V59.8ZM388.453 58.008L387.506 57.6858L387.453 57.8425V58.008H388.453ZM408.101 0.279999V-0.720001H407.385L407.154 -0.042205L408.101 0.279999ZM414.373 0.279999H415.373V-0.720001H414.373V0.279999ZM414.373 2.072L415.319 2.39326L415.373 2.237V2.072H414.373ZM394.789 59.8V60.8H395.505L395.735 60.1213L394.789 59.8ZM389.453 59.8V58.008H387.453V59.8H389.453ZM389.399 58.3302L409.047 0.602203L407.154 -0.042205L387.506 57.6858L389.399 58.3302ZM408.101 1.28H414.373V-0.720001H408.101V1.28ZM413.373 0.279999V2.072H415.373V0.279999H413.373ZM413.426 1.75074L393.842 59.4787L395.735 60.1213L415.319 2.39326L413.426 1.75074ZM394.789 58.8H388.453V60.8H394.789V58.8ZM423.064 44.184L422.362 44.8964L423.069 45.5929L423.771 44.8911L423.064 44.184ZM418.776 39.96L418.07 39.2513L417.355 39.9638L418.074 40.6724L418.776 39.96ZM433.24 25.56L433.946 26.2687L434.657 25.56L433.946 24.8513L433.24 25.56ZM418.776 11.16L418.069 10.4529L417.36 11.1616L418.07 11.8687L418.776 11.16ZM423.064 6.872L423.772 6.1661L423.065 5.45657L422.357 6.16489L423.064 6.872ZM441.688 25.56L442.395 26.2671L443.101 25.5612L442.396 24.8541L441.688 25.56ZM423.766 43.4716L419.478 39.2476L418.074 40.6724L422.362 44.8964L423.766 43.4716ZM419.482 40.6687L433.946 26.2687L432.534 24.8513L418.07 39.2513L419.482 40.6687ZM433.946 24.8513L419.482 10.4513L418.07 11.8687L432.534 26.2687L433.946 24.8513ZM419.483 11.8671L423.771 7.5791L422.357 6.16489L418.069 10.4529L419.483 11.8671ZM422.356 7.57789L440.98 26.2659L442.396 24.8541L423.772 6.1661L422.356 7.57789ZM440.981 24.8529L422.357 43.4769L423.771 44.8911L442.395 26.2671L440.981 24.8529Z" fill="black" mask="url(#path-1-outside-1_9_2)"/>
</g>
<defs>
<filter id="filter0_d_9_2" x="0.496002" y="0.279999" width="445.192" height="67.52" filterUnits="userSpaceOnUse" color-interpolation-filters="sRGB">
<feFlood flood-opacity="0" result="BackgroundImageFix"/>
<feColorMatrix in="SourceAlpha" type="matrix" values="0 0 0 0 0 0 0 0 0 0 0 0 0 0 0 0 0 0 127 0" result="hardAlpha"/>
<feOffset dy="4"/>
<feGaussianBlur stdDeviation="2"/>
<feComposite in2="hardAlpha" operator="out"/>
<feColorMatrix type="matrix" values="0 0 0 0 0 0 0 0 0 0 0 0 0 0 0 0 0 0 0.25 0"/>
<feBlend mode="normal" in2="BackgroundImageFix" result="effect1_dropShadow_9_2"/>
<feBlend mode="normal" in="SourceGraphic" in2="effect1_dropShadow_9_2" result="shape"/>
</filter>
</defs>
</svg>
